# xmcd
#
# Track frame offsets:
#	150
#	22885
#	42071
#	66414
#	82677
#	99897
#	117013
#	135618
#	166006
#	190790
#	207585
#	229117
#	249577
#
# Disc length: 3609 seconds
#
# Revision: 0
# Processed by: cddbd v1.5.2PL0 Copyright (c) Steve Scherf et al.
# Submitted via: dBpowerAMP V4.0
#
DISCID=9a0e170d
DTITLE=Michoel and Dovid Streicher - Solid English
DYEAR=1997
DGENRE=English
TTITLE0=The power of prayer
TTITLE1=The Whole Truth
TTITLE2=Ribono Sheil Olam Listen
TTITLE3=Don't Give Up
TTITLE4=Thank You
TTITLE5=Smile
TTITLE6=Shema Bni
TTITLE7=Warsaw Gehtto
TTITLE8=Ours Forever
TTITLE9=Peace Of Mind
TTITLE10=Oh Taty
TTITLE11=Ona Of A Kind
TTITLE12=Bar Mitzva Boy
EXTD=English compilation - celebrating 13 years - visit my blog http://frummusic.blogspot.com
EXTT0=
EXTT1=
EXTT2=
EXTT3=
EXTT4=
EXTT5=
EXTT6=
EXTT7=
EXTT8=
EXTT9=
EXTT10=
EXTT11=
EXTT12=
PLAYORDER=
